<svg data-name="Group 3777" xmlns="http://www.w3.org/2000/svg" width="52" height="52"><defs><clipPath id="a"><path data-name="Rectangle 2307" fill="none" d="M0 0h52v52H0z"/></clipPath></defs><path data-name="Path 4056" d="M32 20l-6 6-6-6z" fill="none" stroke="#00426c" stroke-linejoin="round" stroke-width="1.5"/><path data-name="Line 564" fill="none" stroke="#00426c" stroke-linejoin="round" stroke-width="1.5" d="M26 40V26"/><g data-name="Group 3776"><g data-name="Group 3775" clip-path="url(#a)" fill="none" stroke="#00426c" stroke-linejoin="round" stroke-width="1.5"><path data-name="Path 4057" d="M32 41v7a3 3 0 01-3 3h-6a3 3 0 01-3-3v-7"/><path data-name="Line 565" stroke-linecap="round" d="M19 48l14-1"/><path data-name="Line 566" stroke-linecap="round" d="M19 45l14-1"/><path data-name="Line 567" stroke-linecap="round" d="M5 18H1"/><path data-name="Line 568" stroke-linecap="round" d="M11.15 3.15L9.736 1.736"/><path data-name="Line 569" stroke-linecap="round" d="M7.813 7.5l-3.464-2"/><path data-name="Line 570" stroke-linecap="round" d="M7.813 28.5l-3.464 2"/><path data-name="Line 571" stroke-linecap="round" d="M47 18h4"/><path data-name="Line 572" stroke-linecap="round" d="M40.85 32.85l1.414 1.414"/><path data-name="Line 573" stroke-linecap="round" d="M11.15 32.849l-1.414 1.415"/><path data-name="Line 574" stroke-linecap="round" d="M40.85 3.15l1.414-1.414"/><path data-name="Line 575" stroke-linecap="round" d="M5.715 23.435l-1.932.518"/><path data-name="Line 576" stroke-linecap="round" d="M46.284 12.564l1.933-.518"/><path data-name="Line 577" stroke-linecap="round" d="M5.715 12.564l-1.932-.518"/><path data-name="Line 578" stroke-linecap="round" d="M46.284 23.435l1.933.518"/><path data-name="Line 579" stroke-linecap="round" d="M44.187 28.5l3.464 2"/><path data-name="Line 580" stroke-linecap="round" d="M44.187 7.5l3.464-2"/><path data-name="Path 4058" d="M43 18a17 17 0 10-26.223 14.277A2.659 2.659 0 0118 34.5V39a2 2 0 002 2h12a2 2 0 002-2v-4.5a2.659 2.659 0 011.223-2.221A16.978 16.978 0 0043 18z"/><path data-name="Path 4059" d="M15 18A11 11 0 0126 7" stroke-linecap="round"/></g></g></svg>