<svg xmlns="http://www.w3.org/2000/svg" width="91.468" height="91.467"><g data-name="Group 1956"><g data-name="Group 1949" transform="translate(-1072.363 -1613.362)"><path data-name="Rectangle 75" d="M1080.614 1614.612h74.967a7 7 0 017 7v7.967h-88.967v-7.967a7 7 0 017-7z" fill="#dedede"/><rect data-name="Rectangle 74" width="88.967" height="88.967" rx="7" transform="translate(1073.614 1614.612)" fill="none" stroke="#6200ab" stroke-linecap="round" stroke-linejoin="round" stroke-width="2.5"/><path data-name="Path 2354" d="M1137.17 1666.451a19.073 19.073 0 11-19.074-19.075 19.074 19.074 0 0119.074 19.075z" fill="none" stroke="#008fed" stroke-linecap="round" stroke-linejoin="round" stroke-width="2.5"/><path data-name="Line 34" fill="none" stroke="#6200ab" stroke-linecap="round" stroke-linejoin="round" stroke-width="2.5" d="M1073.613 1629.222h88.967"/><path data-name="Line 38" fill="none" stroke="#008fed" stroke-linecap="round" stroke-linejoin="round" stroke-width="2.5" d="M1132.838 1678.77l17.662 13.73"/><path data-name="Line 39" fill="none" stroke="#97cde3" stroke-linecap="round" stroke-linejoin="round" stroke-width="2.5" d="M1083.157 1660.686v11.256"/><path data-name="Line 40" fill="none" stroke="#97cde3" stroke-linecap="round" stroke-linejoin="round" stroke-width="2.5" d="M1091.892 1663.891v8.05"/><path data-name="Line 41" fill="none" stroke="#008fed" stroke-linecap="round" stroke-linejoin="round" stroke-width="2.5" d="M1109.361 1671.942v-12.056"/><path data-name="Line 42" fill="none" stroke="#008fed" stroke-linecap="round" stroke-linejoin="round" stroke-width="2.5" d="M1118.096 1671.942v-6.175"/><path data-name="Line 43" fill="none" stroke="#008fed" stroke-linecap="round" stroke-linejoin="round" stroke-width="2.5" d="M1126.831 1671.942v-9.459"/><path data-name="Line 44" fill="none" stroke="#97cde3" stroke-linecap="round" stroke-linejoin="round" stroke-width="2.5" d="M1144.3 1671.942v-7.503"/><path data-name="Line 45" fill="none" stroke="#97cde3" stroke-linecap="round" stroke-linejoin="round" stroke-width="2.5" d="M1153.035 1671.942v-15.008"/><circle data-name="Ellipse 42" cx="1.5" cy="1.5" r="1.5" transform="translate(1082 1621)" fill="#6200ab"/><circle data-name="Ellipse 43" cx="1.5" cy="1.5" r="1.5" transform="translate(1088 1621)" fill="#6200ab"/><circle data-name="Ellipse 44" cx="1.5" cy="1.5" r="1.5" transform="translate(1094 1621)" fill="#6200ab"/></g></g></svg>