<svg xmlns="http://www.w3.org/2000/svg" width="117.522" height="76.638"><g data-name="Group 1957"><g data-name="Group 1951"><path data-name="Path 2355" d="M116.268 75.388V15.567L101.957 1.25h-39.93v74.138z" fill="none" stroke="#6200ab" stroke-linecap="round" stroke-linejoin="round" stroke-width="2.5"/><path data-name="Path 2356" d="M116.268 75.388V15.567L101.957 1.25h-39.93v74.138z" fill="none" stroke="#6200ab" stroke-linecap="round" stroke-linejoin="round" stroke-width="2.5"/><path data-name="Path 2357" d="M114.852 15.567h-14.311l14.311 14.313z" fill="#dedede"/><path data-name="Path 2358" d="M101.957 15.567h14.315L101.957 1.25z" fill="none" stroke="#6200ab" stroke-linecap="round" stroke-linejoin="round" stroke-width="2.5"/><path data-name="Path 2359" d="M101.957 15.567h14.315L101.957 1.25z" fill="none" stroke="#6200ab" stroke-linecap="round" stroke-linejoin="round" stroke-width="2.5"/><path data-name="Path 2360" d="M55.495 75.388V15.567L41.18 1.25H1.25v74.138z" fill="none" stroke="#6200ab" stroke-linecap="round" stroke-linejoin="round" stroke-width="2.5"/><path data-name="Path 2361" d="M55.495 75.388V15.567L41.18 1.25H1.25v74.138z" fill="none" stroke="#008fed" stroke-linecap="round" stroke-linejoin="round" stroke-width="2.5"/><path data-name="Path 2362" d="M54.075 15.567h-12.9l12.9 14.313z" fill="#dedede"/><path data-name="Path 2363" d="M41.18 15.567h14.312L41.18 1.25z" fill="none" stroke="#6200ab" stroke-linecap="round" stroke-linejoin="round" stroke-width="2.5"/><path data-name="Path 2364" d="M41.18 15.567h14.312L41.18 1.25z" fill="#fff" stroke="#008fed" stroke-linecap="round" stroke-linejoin="round" stroke-width="2.5"/><path data-name="Path 2365" d="M71.284 41.213l10.2-10.209-10.2-10.206" fill="none" stroke="#008fed" stroke-linecap="round" stroke-linejoin="round" stroke-width="2.5"/><path data-name="Line 46" fill="none" stroke="#008fed" stroke-linecap="round" stroke-linejoin="round" stroke-width="2.5" d="M78.712 31.004l-42.673.003"/><path data-name="Path 2366" d="M46.239 38.436l-10.2 10.211 10.2 10.2" fill="none" stroke="#6200ab" stroke-linecap="round" stroke-linejoin="round" stroke-width="2.5"/><path data-name="Line 47" fill="none" stroke="#6200ab" stroke-linecap="round" stroke-linejoin="round" stroke-width="2.5" d="M38.811 48.648l42.673-.005"/></g></g></svg>